<svg xmlns="http://www.w3.org/2000/svg" viewBox="0 0 512 512">
  <rect width="512" height="512" rx="110" fill="#111827"/>
  <path d="M256 92c-18 0-32 14-32 32v132c0 13-6 22-12 30-7 10-14 20-14 37 0 35 26 64 58 69v44h-36c-11 0-20 9-20 20s9 20 20 20h104c11 0 20-9 20-20s-9-20-20-20h-28v-44c32-5 58-34 58-69 0-17-7-27-14-37-6-8-12-17-12-30V124c0-18-14-32-32-32h-40zm-12 164V132h64v124c0 25 10 40 19 53 6 9 11 16 11 25 0 28-22 50-50 50s-50-22-50-50c0-9 5-16 11-25 9-13 19-28 19-53z" fill="#ffffff"/>
</svg>
